<svg xmlns="http://www.w3.org/2000/svg" width="22" height="22" viewBox="0 0 22 22">
  <path id="icons8_twitter" d="M26,8.854a7.725,7.725,0,0,1-2.592.872,5.52,5.52,0,0,0,1.984-3.07A8.15,8.15,0,0,1,22.527,8a4.175,4.175,0,0,0-3.294-1.758c-2.492,0-4.515,2.489-4.515,5.555a6.628,6.628,0,0,0,.118,1.264,12.2,12.2,0,0,1-9.3-5.8,6.506,6.506,0,0,0-.612,2.793,5.967,5.967,0,0,0,2.009,4.621,3.873,3.873,0,0,1-2.045-.7v.07c0,2.692,1.554,4.938,3.62,5.445a3.711,3.711,0,0,1-1.189.2,3.607,3.607,0,0,1-.849-.1,4.755,4.755,0,0,0,4.215,3.859,8.049,8.049,0,0,1-5.6,2.374A7.3,7.3,0,0,1,4,25.748a11.107,11.107,0,0,0,6.918,2.5c8.3,0,12.844-8.463,12.844-15.8,0-.238-.007-.48-.014-.718A10.7,10.7,0,0,0,26,8.854Z" transform="translate(-4 -6.246)" fill="#96da2a"/>
</svg>
