<svg xmlns="http://www.w3.org/2000/svg" width="22" height="22" viewBox="0 0 22 22">
  <path id="icons8_tiktok" d="M9.611,5A4.627,4.627,0,0,0,5,9.611V22.389A4.627,4.627,0,0,0,9.611,27H22.389A4.627,4.627,0,0,0,27,22.389V9.611A4.627,4.627,0,0,0,22.389,5Zm0,2H22.389A2.6,2.6,0,0,1,25,9.611V22.389A2.6,2.6,0,0,1,22.389,25H9.611A2.6,2.6,0,0,1,7,22.389V9.611A2.6,2.6,0,0,1,9.611,7ZM17,9V19a2,2,0,1,1-2-2V15a4,4,0,1,0,4,4V12.889A4.882,4.882,0,0,0,21.928,14l.029-2A2.987,2.987,0,0,1,19,9Z" transform="translate(-5 -5)" fill="#aeec43"/>
</svg>
